<mxfile host="app.diagrams.net" agent="Mozilla/5.0 (Windows NT 10.0; Win64; x64) AppleWebKit/537.36 (KHTML, like Gecko) Chrome/139.0.0.0 Safari/537.36 Edg/139.0.0.0" version="28.1.0">
  <diagram name="Page-1" id="vAN0KJlrT1s0Eo0WOsTo">
    <mxGraphModel dx="1556" dy="2020" grid="1" gridSize="10" guides="1" tooltips="1" connect="1" arrows="1" fold="1" page="1" pageScale="1" pageWidth="850" pageHeight="1100" math="0" shadow="0">
      <root>
        <mxCell id="0" />
        <mxCell id="1" parent="0" />
        <mxCell id="QV0MePQZohn8qoribHQy-19" style="edgeStyle=none;rounded=0;orthogonalLoop=1;jettySize=auto;html=1;entryX=0;entryY=0.5;entryDx=0;entryDy=0;" edge="1" parent="1" source="QV0MePQZohn8qoribHQy-1" target="QV0MePQZohn8qoribHQy-8">
          <mxGeometry relative="1" as="geometry" />
        </mxCell>
        <mxCell id="QV0MePQZohn8qoribHQy-20" style="edgeStyle=none;rounded=0;orthogonalLoop=1;jettySize=auto;html=1;entryX=0;entryY=0.5;entryDx=0;entryDy=0;" edge="1" parent="1" source="QV0MePQZohn8qoribHQy-1" target="QV0MePQZohn8qoribHQy-9">
          <mxGeometry relative="1" as="geometry" />
        </mxCell>
        <mxCell id="QV0MePQZohn8qoribHQy-21" style="edgeStyle=none;rounded=0;orthogonalLoop=1;jettySize=auto;html=1;entryX=0;entryY=0.5;entryDx=0;entryDy=0;" edge="1" parent="1" source="QV0MePQZohn8qoribHQy-1" target="QV0MePQZohn8qoribHQy-12">
          <mxGeometry relative="1" as="geometry" />
        </mxCell>
        <mxCell id="QV0MePQZohn8qoribHQy-27" style="edgeStyle=none;rounded=0;orthogonalLoop=1;jettySize=auto;html=1;entryX=0;entryY=0.5;entryDx=0;entryDy=0;" edge="1" parent="1" source="QV0MePQZohn8qoribHQy-1" target="QV0MePQZohn8qoribHQy-13">
          <mxGeometry relative="1" as="geometry" />
        </mxCell>
        <mxCell id="QV0MePQZohn8qoribHQy-1" value="On Job Training&lt;div&gt;Operator&lt;/div&gt;" style="shape=umlActor;verticalLabelPosition=bottom;verticalAlign=top;html=1;outlineConnect=0;" vertex="1" parent="1">
          <mxGeometry x="260" y="160" width="30" height="60" as="geometry" />
        </mxCell>
        <mxCell id="QV0MePQZohn8qoribHQy-22" style="edgeStyle=none;rounded=0;orthogonalLoop=1;jettySize=auto;html=1;entryX=0;entryY=0.5;entryDx=0;entryDy=0;" edge="1" parent="1" source="QV0MePQZohn8qoribHQy-6" target="QV0MePQZohn8qoribHQy-10">
          <mxGeometry relative="1" as="geometry" />
        </mxCell>
        <mxCell id="QV0MePQZohn8qoribHQy-26" style="edgeStyle=none;rounded=0;orthogonalLoop=1;jettySize=auto;html=1;entryX=0;entryY=0.5;entryDx=0;entryDy=0;" edge="1" parent="1" source="QV0MePQZohn8qoribHQy-6" target="QV0MePQZohn8qoribHQy-13">
          <mxGeometry relative="1" as="geometry" />
        </mxCell>
        <mxCell id="QV0MePQZohn8qoribHQy-6" value="On Job Training&lt;div&gt;Trainer&lt;/div&gt;" style="shape=umlActor;verticalLabelPosition=bottom;verticalAlign=top;html=1;outlineConnect=0;" vertex="1" parent="1">
          <mxGeometry x="260" y="290" width="30" height="60" as="geometry" />
        </mxCell>
        <mxCell id="QV0MePQZohn8qoribHQy-28" style="edgeStyle=none;rounded=0;orthogonalLoop=1;jettySize=auto;html=1;entryX=1;entryY=0.5;entryDx=0;entryDy=0;" edge="1" parent="1" source="QV0MePQZohn8qoribHQy-7" target="QV0MePQZohn8qoribHQy-11">
          <mxGeometry relative="1" as="geometry" />
        </mxCell>
        <mxCell id="QV0MePQZohn8qoribHQy-29" style="edgeStyle=none;rounded=0;orthogonalLoop=1;jettySize=auto;html=1;entryX=1;entryY=0.5;entryDx=0;entryDy=0;" edge="1" parent="1" source="QV0MePQZohn8qoribHQy-7" target="QV0MePQZohn8qoribHQy-14">
          <mxGeometry relative="1" as="geometry" />
        </mxCell>
        <mxCell id="QV0MePQZohn8qoribHQy-35" style="edgeStyle=none;rounded=0;orthogonalLoop=1;jettySize=auto;html=1;entryX=1;entryY=0.5;entryDx=0;entryDy=0;" edge="1" parent="1" source="QV0MePQZohn8qoribHQy-7" target="QV0MePQZohn8qoribHQy-15">
          <mxGeometry relative="1" as="geometry" />
        </mxCell>
        <mxCell id="QV0MePQZohn8qoribHQy-7" value="Training School" style="shape=umlActor;verticalLabelPosition=bottom;verticalAlign=top;html=1;outlineConnect=0;" vertex="1" parent="1">
          <mxGeometry x="1080" y="230" width="30" height="60" as="geometry" />
        </mxCell>
        <mxCell id="QV0MePQZohn8qoribHQy-8" value="OJT&lt;br&gt;Daily Record" style="ellipse;whiteSpace=wrap;html=1;" vertex="1" parent="1">
          <mxGeometry x="610" y="160" width="110" height="80" as="geometry" />
        </mxCell>
        <mxCell id="QV0MePQZohn8qoribHQy-9" value="OJT&lt;br&gt;Part Record" style="ellipse;whiteSpace=wrap;html=1;" vertex="1" parent="1">
          <mxGeometry x="460" y="240" width="110" height="80" as="geometry" />
        </mxCell>
        <mxCell id="QV0MePQZohn8qoribHQy-10" value="Performance &lt;br&gt;Rating" style="ellipse;whiteSpace=wrap;html=1;" vertex="1" parent="1">
          <mxGeometry x="600" y="380" width="110" height="80" as="geometry" />
        </mxCell>
        <mxCell id="QV0MePQZohn8qoribHQy-11" value="View &amp;amp; Update&lt;div&gt;Curriculum&lt;/div&gt;" style="ellipse;whiteSpace=wrap;html=1;" vertex="1" parent="1">
          <mxGeometry x="780" y="110" width="110" height="80" as="geometry" />
        </mxCell>
        <mxCell id="QV0MePQZohn8qoribHQy-12" value="OJT &lt;br&gt;Monitoring" style="ellipse;whiteSpace=wrap;html=1;" vertex="1" parent="1">
          <mxGeometry x="600" y="10" width="110" height="80" as="geometry" />
        </mxCell>
        <mxCell id="QV0MePQZohn8qoribHQy-13" value="Viewing &lt;br&gt;Skill Matrix" style="ellipse;whiteSpace=wrap;html=1;" vertex="1" parent="1">
          <mxGeometry x="570" y="500" width="110" height="80" as="geometry" />
        </mxCell>
        <mxCell id="QV0MePQZohn8qoribHQy-14" value="Update&lt;br&gt;Skill Matrix" style="ellipse;whiteSpace=wrap;html=1;" vertex="1" parent="1">
          <mxGeometry x="830" y="230" width="110" height="80" as="geometry" />
        </mxCell>
        <mxCell id="QV0MePQZohn8qoribHQy-15" value="COP&lt;br&gt;Assessment" style="ellipse;whiteSpace=wrap;html=1;" vertex="1" parent="1">
          <mxGeometry x="840" y="360" width="110" height="80" as="geometry" />
        </mxCell>
        <mxCell id="QV0MePQZohn8qoribHQy-16" value="OJT Assessment" style="ellipse;whiteSpace=wrap;html=1;" vertex="1" parent="1">
          <mxGeometry x="770" y="520" width="110" height="80" as="geometry" />
        </mxCell>
        <mxCell id="QV0MePQZohn8qoribHQy-17" value="Update &lt;br&gt;Certification, Performance Rating, Eye Exam" style="ellipse;whiteSpace=wrap;html=1;" vertex="1" parent="1">
          <mxGeometry x="500" y="860" width="130" height="110" as="geometry" />
        </mxCell>
        <mxCell id="QV0MePQZohn8qoribHQy-23" value="&amp;lt;&amp;lt;extend&amp;gt;&amp;gt;" style="html=1;verticalAlign=bottom;labelBackgroundColor=none;endArrow=open;endFill=0;dashed=1;rounded=0;entryX=0.5;entryY=0;entryDx=0;entryDy=0;exitX=0.5;exitY=1;exitDx=0;exitDy=0;" edge="1" parent="1" source="QV0MePQZohn8qoribHQy-8" target="QV0MePQZohn8qoribHQy-10">
          <mxGeometry width="160" relative="1" as="geometry">
            <mxPoint x="460" y="280" as="sourcePoint" />
            <mxPoint x="620" y="280" as="targetPoint" />
          </mxGeometry>
        </mxCell>
        <mxCell id="QV0MePQZohn8qoribHQy-24" value="&amp;lt;&amp;lt;include&amp;gt;&amp;gt;" style="html=1;verticalAlign=bottom;labelBackgroundColor=none;endArrow=open;endFill=0;dashed=1;rounded=0;entryX=0.5;entryY=0;entryDx=0;entryDy=0;exitX=0.5;exitY=1;exitDx=0;exitDy=0;" edge="1" parent="1" source="QV0MePQZohn8qoribHQy-12" target="QV0MePQZohn8qoribHQy-9">
          <mxGeometry width="160" relative="1" as="geometry">
            <mxPoint x="460" y="280" as="sourcePoint" />
            <mxPoint x="620" y="280" as="targetPoint" />
          </mxGeometry>
        </mxCell>
        <mxCell id="QV0MePQZohn8qoribHQy-25" value="&amp;lt;&amp;lt;include&amp;gt;&amp;gt;" style="html=1;verticalAlign=bottom;labelBackgroundColor=none;endArrow=open;endFill=0;dashed=1;rounded=0;entryX=0.5;entryY=0;entryDx=0;entryDy=0;exitX=0.5;exitY=1;exitDx=0;exitDy=0;" edge="1" parent="1" source="QV0MePQZohn8qoribHQy-12" target="QV0MePQZohn8qoribHQy-8">
          <mxGeometry width="160" relative="1" as="geometry">
            <mxPoint x="720" y="190" as="sourcePoint" />
            <mxPoint x="580" y="340" as="targetPoint" />
          </mxGeometry>
        </mxCell>
        <mxCell id="QV0MePQZohn8qoribHQy-33" value="&amp;lt;&amp;lt;extend&amp;gt;&amp;gt;" style="html=1;verticalAlign=bottom;labelBackgroundColor=none;endArrow=open;endFill=0;dashed=1;rounded=0;entryX=0.406;entryY=-0.04;entryDx=0;entryDy=0;exitX=0.5;exitY=1;exitDx=0;exitDy=0;entryPerimeter=0;" edge="1" parent="1" source="QV0MePQZohn8qoribHQy-8" target="QV0MePQZohn8qoribHQy-16">
          <mxGeometry width="160" relative="1" as="geometry">
            <mxPoint x="760" y="350" as="sourcePoint" />
            <mxPoint x="935" y="496" as="targetPoint" />
          </mxGeometry>
        </mxCell>
        <mxCell id="QV0MePQZohn8qoribHQy-34" value="&amp;lt;&amp;lt;extend&amp;gt;&amp;gt;" style="html=1;verticalAlign=bottom;labelBackgroundColor=none;endArrow=open;endFill=0;dashed=1;rounded=0;entryX=0.5;entryY=0;entryDx=0;entryDy=0;exitX=0.5;exitY=1;exitDx=0;exitDy=0;" edge="1" parent="1" source="QV0MePQZohn8qoribHQy-15" target="QV0MePQZohn8qoribHQy-16">
          <mxGeometry width="160" relative="1" as="geometry">
            <mxPoint x="680" y="250" as="sourcePoint" />
            <mxPoint x="830" y="517" as="targetPoint" />
          </mxGeometry>
        </mxCell>
        <mxCell id="QV0MePQZohn8qoribHQy-36" value="" style="rounded=0;whiteSpace=wrap;html=1;fillColor=none;dashed=1;" vertex="1" parent="1">
          <mxGeometry x="430" y="-80" width="600" height="780" as="geometry" />
        </mxCell>
        <mxCell id="QV0MePQZohn8qoribHQy-37" value="E-Certification" style="text;html=1;align=center;verticalAlign=middle;whiteSpace=wrap;rounded=0;" vertex="1" parent="1">
          <mxGeometry x="675" y="-60" width="110" height="30" as="geometry" />
        </mxCell>
      </root>
    </mxGraphModel>
  </diagram>
</mxfile>
